<svg width="42" height="42" viewBox="0 0 42 42" fill="none" xmlns="http://www.w3.org/2000/svg">
<circle cx="21" cy="21" r="21" fill="#1FCA3E"/>
<g clip-path="url(#clip0)">
<path d="M18.5625 25.209V28.6875C18.5625 28.9305 18.7185 29.1457 18.9495 29.2222C19.0072 29.241 19.0665 29.25 19.125 29.25C19.3005 29.25 19.47 29.1675 19.578 29.0205L21.6127 26.2515L18.5625 25.209Z" fill="white"/>
<path d="M29.7634 12.1036C29.5909 11.9814 29.3644 11.9649 29.1769 12.0631L12.3019 20.8756C12.1024 20.9799 11.9847 21.1929 12.0012 21.4171C12.0184 21.6421 12.1677 21.8341 12.3799 21.9069L17.0712 23.5104L27.0619 14.9679L19.3309 24.2821L27.1932 26.9694C27.2517 26.9889 27.3132 26.9994 27.3747 26.9994C27.4767 26.9994 27.5779 26.9716 27.6672 26.9176C27.8097 26.8306 27.9064 26.6844 27.9312 26.5201L29.9937 12.6451C30.0244 12.4351 29.9359 12.2266 29.7634 12.1036Z" fill="white"/>
</g>
<defs>
<clipPath id="clip0">
<rect width="18" height="18" fill="white" transform="translate(12 12)"/>
</clipPath>
</defs>
</svg>
